# xmcd
#
# Track frame offsets: 
#        150
#        15985
#        39395
#        56180
#        76182
#        95540
#        115810
#        136697
#        151817
#        173045
#
# Disc length: 2528 seconds
#
# Revision: 0
# Processed by: cddbd v1.5.2PL0 Copyright (c) Steve Scherf et al.
# Submitted via: ExactAudioCopy v0.99pb5
#
DISCID=6b09de0a
DTITLE=Chick Willis - Footprints In My Bed
DYEAR=1990
DGENRE=Blues
TTITLE0=Love Crazy
TTITLE1=Use What You Got
TTITLE2=What's To become Of The World
TTITLE3=Roll The Dice
TTITLE4=Footprints In My Bed
TTITLE5=Big Red Caboose
TTITLE6=Hello Central
TTITLE7=Jack You Up
TTITLE8=Voodoo Woman
TTITLE9=Nuts For Sale
EXTD=
EXTT0=
EXTT1=
EXTT2=
EXTT3=
EXTT4=
EXTT5=
EXTT6=
EXTT7=
EXTT8=
EXTT9=
PLAYORDER=
